<?xml version="1.0" standalone="no"?><!DOCTYPE svg PUBLIC "-//W3C//DTD SVG 1.1//EN" "http://www.w3.org/Graphics/SVG/1.1/DTD/svg11.dtd"><svg t="1681781153529" class="icon" viewBox="0 0 1024 1024" version="1.1" xmlns="http://www.w3.org/2000/svg" p-id="1938" xmlns:xlink="http://www.w3.org/1999/xlink" width="200" height="200"><path d="M85.333333 256m85.333334 0l682.666666 0q85.333333 0 85.333334 85.333333l0 426.666667q0 85.333333-85.333334 85.333333l-682.666666 0q-85.333333 0-85.333334-85.333333l0-426.666667q0-85.333333 85.333334-85.333333Z" fill="#000000" opacity=".3" p-id="1939"></path><path d="M213.333333 170.666667h85.333334a42.666667 42.666667 0 0 1 42.666666 42.666666v42.666667H170.666667V213.333333a42.666667 42.666667 0 0 1 42.666666-42.666666z m512 0h85.333334a42.666667 42.666667 0 0 1 42.666666 42.666666v42.666667h-170.666666V213.333333a42.666667 42.666667 0 0 1 42.666666-42.666666zM298.666667 512v-42.666667a42.666667 42.666667 0 0 1 85.333333 0v42.666667h42.666667a42.666667 42.666667 0 0 1 0 85.333333H384v42.666667a42.666667 42.666667 0 0 1-85.333333 0v-42.666667H256a42.666667 42.666667 0 0 1 0-85.333333h42.666667z" fill="#000000" p-id="1940"></path><path d="M597.333333 512m42.666667 0l85.333333 0q42.666667 0 42.666667 42.666667l0 0q0 42.666667-42.666667 42.666666l-85.333333 0q-42.666667 0-42.666667-42.666666l0 0q0-42.666667 42.666667-42.666667Z" fill="#000000" p-id="1941"></path></svg>